# xmcd
#
# Track frame offsets:
#	150
#	15325
#	29800
#	49675
#	64600
#	78400
#	95425
#	110275
#	124150
#	139000
#
# Disc length: 2036 seconds
#
# Revision: 0
# Processed by: cddbd v1.5.1PL0 Copyright (c) Steve Scherf et al.
# Submitted via: dBpowerAMP V4.0
#
DISCID=7c07f20a
DTITLE=Hartsa - Sateen jälkeen
DYEAR=1991
DGENRE=Gangsta
TTITLE0=Kerro selvinpäin
TTITLE1=Sateen jälkeen
TTITLE2=Joka yö
TTITLE3=Olen etsinyt sua ennenkin
TTITLE4=Yksin nukkumaan
TTITLE5=Hei beibi
TTITLE6=Kruisaillaan
TTITLE7=Kirje lämmittäisi
TTITLE8=H.I.M.O.
TTITLE9=Voittaja
EXTD=\nHartsa\nSateen jälkeen\n1991
EXTT0=
EXTT1=
EXTT2=
EXTT3=
EXTT4=
EXTT5=
EXTT6=
EXTT7=
EXTT8=
EXTT9=
PLAYORDER=
